Patient4_TMGait_0pt4_01_right_04_EMG.mot
version=1
nRows=37
nColumns=33
inDegrees=no
endheader
time	1LAddLong	2LGlutMax	3LGlutMed	4LIliopsoas	5LSemiMemb	6LBicFemLong	7LRecFem	8LVastMed	9LVastLat	10LGasMed	11LTibAnt	12lTibPost	13LPeroneusLong	14LSol	15LExtDigLong	16LFlexDigLong	17RAddLong	18RGlutMax	19RGlutMed	20RIliopsoas	21RSemiMemb	22RBicFemLong	23RRecFem	24RVastMed	25RVastLat	26RGasMed	27RTibAnt	28RTibPost	29RPeroneusLong	30RSol	31RExtDigLong	32RFlexDigLong
4.74	-0.003052	0.14679	-0.21378	0.006714	0.04425	-0.11032	0.14069	-0.000305	-0.032501	0.036163	0.003204	0.000763	-0.45364	0.121	-0.000305	0.013428	0.000916	-0.092316	0.012665	0.048523	0.15045	-0.22492	0.34195	0.044861	0.02655	-0.004578	0.31769	-0.004578	-0.34409	-0.10544	0.000305	-0.005798
4.741	-0.011444	0.10117	-0.29007	0.022583	0.037537	-0.050201	0.16907	0.000305	-0.055237	0.087891	0.013885	-0.005493	0.46387	0.14084	0.3006	-0.001831	-0.018311	-0.10239	-0.000458	0.042725	0.048523	-0.22156	0.23712	-0.038757	0.029144	-0.016937	0.35248	-0.009155	-0.48828	0.1265	-0.000153	-0.009308
4.742	-0.014191	0.10544	-0.19943	0.014801	0.020447	0.007782	0.17639	-0.000153	-0.041809	0.084839	-0.023499	0.002289	0.37247	0.051575	0.062714	0.014496	-0.013885	-0.10071	0.023193	-0.031281	-0.001221	-0.21515	0.19516	-0.10452	0.020447	-0.020905	0.14648	-0.004578	-0.33676	0.26337	0.001526	-0.00885
4.743	-0.015869	0.070953	0.11704	0.029602	0.007019	0.058136	0.15823	0.022125	0.019684	-0.005798	0.043182	-0.001221	0.25055	0.037537	-0.14481	0.007629	0.011139	-0.093994	-0.066376	-0.15137	-0.009155	-0.27008	0.14832	-0.18219	0.006866	-0.018005	0.11032	-0.005035	-0.33112	0.07843	0.000153	-0.005493
4.744	-0.014191	0.017395	0.22949	0.010986	-0.039063	0.06424	0.10605	0.023956	0.042877	-0.20187	0.066681	0.002747	0.21866	0	-0.16007	-0.007324	0.058441	-0.1207	-0.063171	-0.27084	-0.027008	-0.31921	0.04715	-0.20248	0.014954	-0.020905	0.24872	-0.007172	-0.2298	-0.024109	-0.003052	-0.005646
4.745	-0.005188	-0.002136	0.15427	0.006104	-0.062408	0.062103	-0.026398	0.036011	0.027161	-0.23102	0.074921	0.002289	-0.34744	-0.057831	-0.12207	0.007019	0.17899	-0.13214	0.02243	-0.44373	-0.074463	-0.35339	0.086517	-0.17532	0.019531	-0.016785	0.27756	-0.011139	0.15732	0.031128	0.000916	-0.000305
4.746	0.000763	-0.029144	0.019379	0.003967	-0.021057	0.012817	-0.095825	0.036926	0.025024	-0.17181	0.015717	0.002594	-0.63675	-0.027313	0.30411	0.040131	0.17395	-0.080109	-0.001221	-0.38498	0.027466	-0.32745	0.13092	-0.14084	0.009155	-0.020447	0.35446	-0.002594	-0.019073	-0.021362	0.00061	-0.002747
4.747	0.010834	-0.016632	0.005951	-0.011444	0.10086	0.008087	-0.11108	0.037079	-0.032654	-0.17059	-0.050201	-0.000458	-0.23636	0.001068	0.10025	0.03006	0.056305	-0.088043	-0.00473	-0.19821	-0.028839	-0.29251	0.077972	-0.094299	0.02243	-0.015106	0.18433	-0.003357	0.11002	-0.054932	0.000916	0.007629
4.748	-0.028992	-0.003662	0.020447	0.001373	0.06485	-0.006256	-0.16159	0.013733	0.00351	-0.061951	-0.058594	0.004425	-0.23407	-0.13184	-0.027466	0.001373	-0.028381	-0.12375	0.03418	-0.027313	0.092773	-0.31662	0.069275	-0.061188	0.00885	-0.012207	-0.19943	-0.003967	-0.064087	-0.082855	-0.002136	0.003662
4.749	-0.038452	-0.027924	0.027618	0.014038	0.026398	-0.057831	-0.085602	-0.015869	0.006256	0.018158	-0.046997	0.005341	-0.032654	-0.24185	-0.1683	-0.010071	-0.10132	-0.10132	0.14587	0.20752	0.16998	-0.33325	-0.031433	-0.048828	0.018921	-0.021667	-0.6218	-0.006866	-0.41061	-0.02182	0	0.004883
4.75	-0.00412	-0.040588	0.019073	-0.00946	-0.010681	-0.1178	-0.10239	-0.011597	0.02533	0.026245	-0.070496	0.006714	0.46204	-0.20233	-0.059204	0.000153	-0.12909	-0.0914	0.17334	0.58304	0.04776	-0.41	-0.001373	-0.049744	-0.013123	-0.024109	-0.27863	-0.002289	0.009308	-0.059052	0.001373	-0.002441
4.751	-0.005798	-0.053406	0.01297	0.001221	0.034943	-0.11505	-0.16541	-0.016937	0.13153	0.055695	-0.041656	-0.00061	0.15549	-0.11627	0.094757	0.033722	-0.1236	-0.10803	0.27344	0.56046	-0.000458	-0.39703	0.084839	-0.032654	-0.002747	-0.014191	0.13962	-0.000153	0.41748	-0.082245	0.002441	0.005341
4.752	0.005951	-0.064545	0.027771	0.011139	0.032654	-0.043335	-0.090027	-0.036469	0.29617	0.090179	-0.007019	0.006104	0.1239	-0.15549	0.49255	-0.011139	-0.097809	-0.079346	0.13107	0.36194	-0.015106	-0.40131	0.093842	-0.05127	0.000305	-0.02121	0.58655	-0.002136	0.17838	-0.035858	-0.003357	0.003662
4.753	-0.004578	-0.090942	0.031586	0.020752	0.009308	-0.029144	0.030518	-0.041962	0.15259	0.071411	0.11353	0.010071	-0.054321	-0.04837	-0.21576	-0.000916	-0.082245	-0.097961	0.077515	0.21545	0.018921	-0.41397	0.16144	-0.080109	-0.025024	-0.032806	0.27863	-0.002899	-0.13657	0.001526	0	-0.000458
4.754	-0.015869	-0.076752	0.065155	0.036774	-0.011292	0.055389	0.11658	-0.014648	-0.064392	0.039063	0.093536	0.003052	-0.17456	0.089569	-0.084381	-0.00824	-0.06012	-0.04425	0.18951	0.088196	0.065918	-0.47562	0.15289	-0.013885	0.014191	-0.036011	0.23789	-0.009766	-0.27893	0.068665	-0.000305	0.00351
4.755	-0.010071	-0.068817	0.10132	0.016785	0.029755	0.063934	0.11139	-0.002899	-0.078583	0.01297	0.031891	0.004272	-0.022125	0.11124	-0.19653	0.003204	-0.05722	-0.084991	0.23819	-0.025635	0.079346	-0.53253	0.09903	-0.029297	0.000153	-0.039825	0.21606	-0.009003	0.031586	0.091248	0.002289	0.005646
4.756	-0.020294	-0.08606	0.14114	0.010071	0.061188	0.013885	0.13351	-0.001373	-0.039368	-0.031891	0.03952	0.010071	0.10178	0.04425	-0.20371	0.000916	-0.034943	-0.0737	0.15442	-0.046234	0.055542	-0.62729	0.070953	-0.041656	-0.004578	-0.036469	-0.13428	-0.003204	0.51956	0.041809	-0.000305	-0.00412
4.757	-0.023346	-0.096283	0.15045	0.0177	-0.028229	-0.027924	0.11704	-0.001526	0.006866	0.000305	0.14435	0.001221	0.01358	-0.027161	0.72861	0.006409	-0.03418	-0.091553	0.07782	-0.036926	0.04425	-0.47318	0.12314	-0.063629	0.003204	-0.032196	-0.27786	-0.007324	0.44327	-0.043488	0	-0.005646
4.758	-0.018921	-0.083008	0.11459	0.016632	-0.062256	0.00824	0.053253	0.000458	0.014954	0.026093	0.073242	-0.000763	-0.087585	-0.047302	0.37048	0.009918	-0.019226	-0.078583	0.10605	-0.00351	0.043182	-0.37567	0.10895	-0.019226	0.006256	-0.027161	-0.46356	-0.011902	0.30487	0.014038	-0.004883	-0.009766
4.759	-0.006866	-0.08316	0.11169	0.02594	0.006409	0.040741	0.048218	0.006256	0.044098	-0.004272	0.028839	0.000763	-0.10498	0.024719	-0.1886	-0.003967	-0.018616	-0.078888	0.13382	0.000763	0.045776	-0.3006	0.080872	-0.027924	0.006409	-0.029907	-0.56335	-0.006866	0.21194	0.030823	0.000305	-0.00824
4.76	-0.005035	-0.080261	0.11917	0.028687	0.034485	0.007935	0.022888	0.002136	0.029602	-0.036469	-0.14069	-0.00412	-0.068054	0.075226	-0.19424	-0.004425	-0.01236	-0.06012	0.21866	-0.020294	0.031281	-0.25452	0.031281	-0.083008	0.016785	-0.022278	-0.57846	-0.002594	0.28183	-0.040283	0.000153	-0.002136
4.761	0.008698	-0.10468	0.050507	-0.001831	0.010376	-0.046539	0.00412	0.00061	0.045319	-0.012817	-0.093536	-0.000305	-0.1329	0.037537	-0.19638	-0.01297	-0.016785	-0.062103	0.041962	-0.050049	0.023651	-0.2272	0.001373	-0.0914	0.028839	-0.025787	-0.31296	-0.002899	0.15778	0.001831	-0.001678	-0.003204
4.762	0.010529	-0.13687	-0.010986	-0.006104	0.045471	-0.011597	-0.019073	-0.002594	0.043182	0.016327	-0.043182	0.012054	0.16739	0.032806	-0.10574	0.010529	-0.013123	-0.094604	-0.063324	-0.057373	0.012207	-0.17044	0.077362	-0.063934	0.009155	-0.027161	-0.13458	-0.008545	0.048828	-0.048218	0	-0.002441
4.763	0.014954	-0.14328	0.067291	-0.02182	0.059052	0.058136	0.022583	-0.000153	0.041504	0.014954	-0.07843	0.004425	-0.18066	-0.007477	-0.072632	0.022125	-0.013428	-0.072327	0.15381	-0.05722	0.007935	-0.12878	-0.037994	-0.079041	0.020447	-0.025787	0.10635	-0.006561	-0.31433	-0.12726	0.002899	0.00061
4.764	0.010986	-0.10315	0.028687	0.015717	0.034485	0.061035	0.014038	0.010223	0.040131	0.010834	-0.07782	0.00061	0.13199	-0.16602	-0.052643	0.007324	-0.006409	-0.058746	0.55527	-0.046539	0.007172	-0.091858	-0.069733	-0.078888	0.022583	-0.025024	0.30899	0	-0.54047	-0.10056	0.002289	0.001068
4.765	0.016479	-0.11063	0.078278	-0.013733	0.024261	0.075836	-0.006256	0.007324	0.056305	0.007019	-0.02121	0.007477	0.23209	-0.13229	-0.034637	-0.007935	-0.008698	-0.068817	0.23071	-0.022278	-0.000458	-0.05188	-0.076141	-0.071411	0.019379	-0.028992	0.18906	-0.006104	-0.43823	-0.035858	0.000458	0.007782
4.766	0.011444	-0.10986	0.27634	-0.015869	0.024719	0.084076	0.011902	-0.001068	0.039673	-0.005341	-0.018005	0.012665	-0.013885	0.013275	-0.029297	-0.012665	0.007629	-0.078583	0.2449	-0.039063	-0.016327	-0.05249	0.016479	-0.1088	0.010986	-0.032043	0.32303	-0.00412	-0.18051	-0.033722	0.001373	0.009003
4.767	0.013123	-0.080109	0.29724	0.015564	0.032959	0.14908	0.013123	-0.001373	0.033875	0.016479	0.001068	0.000153	0.058594	-0.022888	0.007629	-0.003052	0.011597	-0.058289	0.13702	-0.005798	-0.023193	-0.011292	0.090332	-0.089874	0.017548	-0.040436	0.37338	0.001373	-0.21561	0.034485	0.000153	0.010376
4.768	0.004578	-0.10544	0.27069	-0.00946	0.028381	0.099945	0.030518	0.001678	0.040894	0.013885	0.084229	-0.007172	-0.019226	-0.098724	0.1384	-0.008545	0.024567	-0.07431	0.067902	-0.056	-0.015106	-0.00351	0.14771	-0.11063	0.01236	-0.033875	-0.042725	-0.00946	-0.15137	0.026855	0.002594	0.003967
4.769	0.000305	-0.11871	0.14725	0.005493	0.02594	0.031433	0.034485	-0.004883	0.033569	0.00824	0.054474	0.003967	-0.20462	-0.085907	0.18921	-0.012512	0.069733	-0.025482	0.18875	-0.16922	-0.11429	-0.065308	0.11414	-0.13184	0.035248	-0.039368	-0.3006	-0.002594	0.48157	-0.10941	0.002136	0.003204
4.77	-0.002441	-0.099792	0.17242	-0.010071	0.004425	-0.15915	-0.003052	0.004272	0.042877	-0.019379	-0.05661	0.001068	0.042725	-0.055695	0.035553	-0.009003	0.10117	-0.067139	0.46783	-0.14481	-0.1712	-0.089111	0.13931	-0.15091	0.005035	-0.039368	-0.28534	-0.007782	1.1858	-0.18524	-0.000458	0.006866
4.771	-0.004578	-0.15976	0.12512	0.002747	-0.023193	-0.094452	-0.01236	0.002289	0.046082	-0.041504	-0.11704	0.000458	0.087891	-0.063782	-0.059967	0.004272	0.10529	-0.02594	0.46478	-0.009003	-0.1651	-0.10742	0.079498	-0.22583	-0.00351	-0.050964	-0.10803	-0.008392	0.56473	-0.041504	0.001221	0.008087
4.772	0.002747	-0.096588	0.056915	0.022888	-0.034637	-0.095673	-0.029144	0.00473	0.059204	-0.025787	-0.048676	0.003967	0.044708	-0.03418	-0.11398	0.022736	0.0383	-0.024261	0.29633	-0.04837	0.01709	0.062866	0.03952	-0.10117	0.020447	-0.057831	0.069275	-0.00473	-0.14206	-0.000153	-0.000305	0.019073
4.773	0.027313	-0.10696	-0.026703	-0.002747	-0.002289	-0.054626	-0.005798	0.008545	0.063477	-0.034027	-0.010223	0.001221	0.0383	0.021057	-0.046387	0.011292	-0.029449	-0.081329	-0.08316	-0.091705	0.20416	0.18417	0.018463	-0.026245	0.039368	-0.052948	0.31632	-0.002594	-0.51163	-0.046844	-0.00473	0.006561
4.774	0.013123	-0.11017	-0.11887	0.005798	0.006104	0.00946	0.036011	0.014191	0.046997	0.011749	0.004425	0.010681	0.019531	0.048828	0.000305	0.00885	-0.065308	-0.05249	0.10666	-0.042725	-0.046844	0.16663	0.1712	0.005035	0.040283	-0.054626	0.43243	-0.007629	-0.64438	0.001831	0.006866	0.006561
4.775	0.002594	-0.057373	0.26688	0.001526	0.035248	0.019379	0.012207	0.024414	0.030518	0.037231	0.075989	-0.005798	-0.048828	0.049896	0.009155	0.008698	-0.081635	-0.054932	0.1857	0.046234	0.033264	0.12299	0.24368	0.012512	0.028687	-0.057526	0.11765	-0.004272	-0.69885	0.040283	-0.000153	0.010071
4.776	0.001831	-0.10819	0.22018	0.003967	0.059204	0.022736	0.025635	0.010681	0.043182	0.057831	0.093384	0.000916	-0.049896	-0.039673	0.017242	0.019379	-0.05127	-0.041199	0.21652	0.090179	0.085297	0.097961	0.21683	-0.008698	0.018921	-0.061798	-0.63004	-0.007629	-0.089417	-0.024872	0.002136	0.011139
